<svg xmlns="http://www.w3.org/2000/svg" viewBox="0 0 267.1 61.9"><style>.st0{fill:#FFFFFF;}</style><path fill="#000" d="M0 61.9h267.1V0H0v61.9z"/><path class="st0" d="M41.9 34.8h5.5l-1.5 8.5c-1.5.4-3 .6-4.5.5-5.1 0-7-1.6-7-6.7 0-7.8 1.9-18.7 11.8-18.7 2.9.1 5.7.5 8.5 1.2l1.6-6.2c-3-.6-6-.8-9-.9-15.1 0-19.7 11.5-19.7 24.6 0 8.5 4.5 12.7 12.8 12.7 3.8 0 7.5-.6 11.1-1.6L55 29H43l-1.1 5.8zm47.7-10.5c0-7.2-3.3-11.9-11.7-11.9-13.8 0-18.7 13.1-18.7 25.4 0 7.3 3.4 11.9 11.7 11.9 13.9.1 18.7-13.1 18.7-25.4m-6.8.6c0 6.8-2 18.9-10.7 18.9-3.6 0-6.1-1.7-6.1-6.6 0-6.7 2-18.8 10.7-18.8 3.7 0 6.1 1.6 6.1 6.5m34.2 9.9h5.5l-1.5 8.5c-1.5.4-3 .6-4.5.5-5.1 0-7.1-1.6-7.1-6.7 0-7.8 1.9-18.7 11.8-18.7 2.9.1 5.7.5 8.5 1.2l1.6-6.2c-3-.6-6-.8-9-.9-15.1 0-19.7 11.5-19.7 24.6 0 8.5 4.5 12.7 12.8 12.7 3.8 0 7.5-.6 11.1-1.6l3.6-19.1h-12l-1.1 5.7zm41.5 14.4L154.9 13h-8L130 49.2h6.9l3.1-7.1h11.3l.6 7.1h6.6zm-7.6-12.8h-8.2l5.6-12.7c.4-1 .8-2 1.1-3l.7-2.2-.1 2.2c-.1 1-.1 2 0 3l.9 12.7zm33.6-17.6l1.1-5.8h-24.1l-1.1 5.8h8.6l-5.6 30.5h6.5l5.6-30.5h9zm28.1 5.5c0-7.2-3.3-11.9-11.7-11.9-13.8 0-18.7 13.1-18.7 25.4 0 7.3 3.4 11.9 11.7 11.9 14 .1 18.7-13.1 18.7-25.4m-6.7.6c0 6.8-2 18.9-10.7 18.9-3.6 0-6.1-1.7-6.1-6.6 0-6.7 2-18.8 10.7-18.8 3.6 0 6.1 1.6 6.1 6.5m15-11.9l-6.7 36.3h6.5l2.7-14.3h5.1l3.1 14.3h6.4l-3.6-15c5.5-1.4 8.4-6.8 8.4-12.4s-2.7-8.8-8.8-8.8h-13.1V13zm5.4 5.8h6.7c2.3 0 3.2 1 3.2 3.4 0 4.3-1.9 7.1-5.4 7.1h-6.4l1.9-10.5z"/></svg>
