<svg xmlns="http://www.w3.org/2000/svg" viewBox="0 0 230.2 53.4"><title>nothing</title><path d="M21.7 35.2c1 3.5 1.9 8.1 2.6 11.3h.1c-.5-5.5-.7-11.8-.7-16.5L23.5.7h7.7v52H19.8l-8.7-29.1C9.7 18.7 8.2 13 7.1 7h-.2c.4 4.7.7 11.3.7 16.5l.2 29.2H0V.7h11.6l10.1 34.5zM54.8 0c12.9 0 15.7 8.2 15.7 26.7s-2.8 26.7-15.7 26.7S39 45.3 39 26.7 41.7 0 54.8 0zm-.1 7.6c-5.8 0-6.9 3.2-6.9 19.2S48.9 46 54.7 46s7-3.2 7-19.2-1.2-19.2-7-19.2zM90.9 8.1v44.5h-8.5V8.1h-9.9V.7h28.2v7.5h-9.8zM126.4 52.7v-23h-12.1v23h-8.5V.7h8.5v21.6h12.1V.7h8.6v52h-8.6zM143.5 52.7V.7h8.5v52h-8.5zM183 35.2c1 3.5 1.9 8.1 2.6 11.3h.1c-.5-5.5-.7-11.8-.7-16.5L184.9.7h7.7v52h-11.5l-8.7-29.1c-1.5-4.9-2.9-10.6-4-16.6h-.2c.5 4.7.7 11.3.7 16.5l.1 29.1h-7.7V.6h11.6L183 35.2zM230.2 51c-4.3 1.4-8.9 2.2-13.4 2.3-13.3 0-16.5-9-16.5-27 0-18.6 4.1-26.3 16.5-26.3 3.7 0 7.4.5 11 1.3l-.7 7.7c-3.4-.8-6.8-1.2-10.3-1.3-6 0-7.7 3.8-7.7 18.7 0 11.5.3 19.3 7.7 19.3 1.7 0 3.5-.2 5.1-.8V31.5H216v-7.4h14.1V51z"/></svg>