<svg id="Layer_1" xmlns="http://www.w3.org/2000/svg" viewBox="0 0 205.2 100.6"><style>.st0{fill:none;stroke:#000000;}</style><path d="M204.8 71.2v-1.1h-4.9v-14h-1.3v15.1h6.2zm-8.6 0v-1.1h-4.9v-14H190v15.1h6.2zm-13.3-11.3c.2-.7.4-2.1.5-2.8.2.9.4 1.9.5 2.8l1.4 6.6h-4l1.6-6.6zm3.5 11.3h1.4l-3.4-15.1h-1.8l-3.4 15.1h1.3l.8-3.5h4.4l.7 3.5zm-19.9-15.1h-1.8v15.1h1.2V59.4c0-.7 0-1.8-.1-2.3.2.7.4 1.7.6 2.2l4.3 11.9h1.8V56.1h-1.2V68c0 .4.1 1.8.1 2.3-.2-.6-.4-1.6-.6-2.3l-4.3-11.9zm-11.9 7.6c0-4 .2-6.6 2.9-6.6 2.8 0 2.9 2.6 2.9 6.6 0 4-.2 6.7-2.9 6.7-2.7-.1-2.9-2.7-2.9-6.7m7.3 0c0-4.6-.5-7.8-4.3-7.8s-4.3 3.2-4.3 7.8.5 7.8 4.3 7.8 4.3-3.2 4.3-7.8m-13.8-7.1l-.2-.7-1.5.7.1-1.8h-.7l.1 1.8-1.5-.7-.2.7 1.6.4-1.1 1.5.6.4.9-1.6.9 1.6.6-.4-1.1-1.5 1.5-.4zm-5.2 14.6v-1.1h-5V64h4.1v-1.1h-4.1v-5.6h5v-1.1h-6.3v15.1h6.3zm-8.6 0v-1.1h-4.9v-14h-1.3v15.1h6.2zM124.1 67c0 1.9-.6 3.1-2.2 3.1h-2.4V64h2.3c1.8 0 2.3 1.5 2.3 3m-.3-7c0 1.4-.4 2.9-2 2.9h-2.2v-5.6h2.3c1.7 0 1.9 1.3 1.9 2.7m1.7 7c0-1.8-.7-3.1-1.9-3.6 1.1-.6 1.6-1.8 1.6-3.6 0-2.3-.8-3.7-3.3-3.7h-3.6v15.1h3.8c2.2 0 3.4-1.4 3.4-4.2m-14.4-7.1c.2-.7.4-2.1.5-2.8.2.9.4 1.9.5 2.8l1.4 6.6h-4l1.6-6.6zm3.5 11.3h1.4l-3.4-15.1h-1.8l-3.4 15.1h1.3l.8-3.5h4.4l.7 3.5zm-8.9 0v-1.1h-4.9v-14h-1.3v15.1h6.2zm-9.4-15.1H95v15.1h1.3V56.1zm-8.5 3.8c.2-.7.4-2.1.5-2.8.2.9.4 1.9.5 2.8l1.4 6.6h-4l1.6-6.6zm3.5 11.3h1.4l-3.4-15.1h-1.8L84 71.2h1.3l.8-3.5h4.4l.8 3.5zM76.8 56.1h-1.3l3.3 15.1h1.7l3.3-15.1h-1.3L80.2 67c-.2 1-.4 2.1-.6 3.1-.2-1-.4-2.1-.6-3.1l-2.2-10.9zm-6.5 3.8c.2-.7.4-2.1.5-2.8.2.9.4 1.9.5 2.8l1.4 6.6h-4l1.6-6.6zm3.6 11.3h1.4l-3.4-15.1H70l-3.4 15.1h1.3l.8-3.5h4.4l.8 3.5zm-12.9 0v-1.1h-5V64h4.1v-1.1H56v-5.6h5v-1.1h-6.3v15.1H61zm-11.3-.9c-2.7 0-3-2.8-3-6.6 0-3.9.3-6.6 3.1-6.6.9 0 1.7.2 2.4.4l.2-1.2c-.8-.3-1.6-.4-2.5-.4-3.8 0-4.5 3.2-4.5 7.8s.7 7.8 4.4 7.8c1.1 0 1.9-.2 2.6-.4l-.1-1.2c-.8.3-1.7.4-2.6.4M36.4 56.1h-1.8v15.1h1.2V59.4c0-.7 0-1.8-.1-2.3.2.7.4 1.7.6 2.2l4.3 11.9h1.8V56.1h-1.2V68c0 .4.1 1.8.1 2.3-.2-.6-.4-1.6-.6-2.3l-4.3-11.9zm-9 3.8c.2-.7.4-2.1.5-2.8.2.9.4 1.9.5 2.8l1.4 6.6h-4l1.6-6.6zM31 71.2h1.4L29 56.1h-1.8l-3.4 15.1H25l.8-3.5h4.4l.8 3.5zM15.3 56.1h-1.8v15.1h1.2V59.4c0-.7 0-1.8-.1-2.3.2.7.4 1.7.6 2.2l4.3 11.9h1.8V56.1h-1.2V68c0 .4.1 1.8.1 2.3-.2-.6-.4-1.6-.6-2.3l-4.3-11.9zm-5 0H9v15.1h1.3V56.1zm-3.7 1.2v-1.1H.2v15.1h1.3V64h4.2v-1.1H1.6v-5.6h5zM205 42.6h-5.1v5.1h5.1v-5.1zm-24-29.8c.5-2.2 1.2-6.4 1.6-8.6h.1c.5 2.7 1.1 5.8 1.7 8.7l4.3 20.4h-12.2l4.5-20.5zm10.9 34.9h4.2L185.5 1.1H180l-10.5 46.6h4.1l2.4-10.8h13.7l2.2 10.8zm-27-5.1h-5.1v5.1h5.1v-5.1zM160 14.8c0 5.9-.8 10.1-6.4 10.1H146V4.7h7.6c5.4 0 6.4 4.5 6.4 10.1m4.2 0c0-8-2.2-13.7-10.3-13.7h-12v46.6h4.1V28.6h8c7.9 0 10.2-5.7 10.2-13.8M102.5 11c0 5.7-.5 6.1-2.2 6.1-1.6 0-2-.4-2-6.1 0-5.7.5-6.2 2-6.2 1.7 0 2.2.5 2.2 6.2m5.2 0c0-7.2-1.8-10.1-7.3-10.1-5.4 0-7.3 2.9-7.3 10.1 0 7.2 1.8 10.1 7.3 10.1 5.6 0 7.3-2.9 7.3-10.1m12.7 27c0 5.7-.5 6.1-2.2 6.1-1.6 0-2-.4-2-6.1 0-5.7.5-6.2 2-6.2 1.6 0 2.2.5 2.2 6.2m5.1 0c0-7.2-1.8-10.1-7.3-10.1-5.4 0-7.3 2.9-7.3 10.1 0 7.2 1.8 10.1 7.3 10.1 5.6 0 7.3-2.8 7.3-10.1m-5.7-36.9h-4.9L98.8 47.7h4.9l16.1-46.6zm-39 23.4c0 14.3-.9 17.6-5 17.6-4.2 0-5.1-3.3-5.1-17.6 0-14.4.9-17.8 5.1-17.8s5 3.4 5 17.8m-17.6 0c0 17.2 2.8 23.9 12.6 23.9 9.7 0 12.5-6.6 12.5-23.9C88.3 7.1 85.5.4 75.8.4 66 .4 63.2 7.1 63.2 24.5m-3.9 11.2v-6.4h-4.1v-13h-6.5l-.7 13h-3.9c-1.4 0-2.9 0-4.4.1.7-1.8 1.4-4.3 1.8-5.8l6.2-23h-7l-8.5 29.1.2 5.9H48v12h7.3v-12h4zm-32.2 3.5h-8.5v8.5h8.5v-8.5zm-14.7 8.5V1.1H.1v6.4h5v40.2h7.3zM205.2 96c0-1.6-.5-2.5-1.6-3.6-.8-.8-1.5-1.6-2.6-2.6-.8-.8-1.2-1.4-1.2-2.2 0-.9.6-1.6 2-1.6.5 0 1.2 0 2.5.3l.1-2.4c-1.1-.2-2-.3-2.9-.3-2.8 0-4.3 1.7-4.3 4.2 0 1.6.6 2.7 1.6 3.8l2.4 2.4c.6.6 1.1 1.1 1.1 2.2 0 .8-.5 1.8-2 1.8-.7 0-1.8-.1-3-.4l-.1 2.6c1.3.2 2.7.3 3.2.3 3.2 0 4.8-1.8 4.8-4.5m-9.4 4.3V98h-4.7v-5h3.7v-2.3h-3.7v-4.5h4.7v-2.4h-7.3v16.4h7.3zm-9.1 0V98H182V83.9h-2.7v16.4h7.4zm-12.3-2.2c-2 0-2.7-1.3-2.7-6 0-4.8.6-6 2.6-6 .8 0 1.7.1 2.7.4l.2-2.4c-1-.3-1.7-.4-2.9-.4-4.2 0-5.4 2.6-5.4 8.4 0 5.9 1.2 8.4 5.4 8.4 1.2 0 1.9-.2 2.9-.4l-.2-2.4c-.9.3-1.7.4-2.6.4m-7.9-14.2h-2.7v16.4h2.7V83.9zm-5.4 16.4V83.9h-2.7v6.8h-3.8v-6.8h-2.7v16.4h2.7V93h3.8v7.3h2.7zm-11.2 0V98h-4.7v-5h3.7v-2.3h-3.7v-4.5h4.7v-2.4h-7.3v16.4h7.3zm-14-2.3c-.1-1.1-.3-3.2-.5-4.1l-1.7-10H131l3.3 16.4h3.2l3.3-16.4H138l-1.7 10c-.1 1-.3 3-.4 4.1zm-9.8-14.1h-2.9l-1.2 3.9c-.4 1.1-.6 2.3-.9 3.7-.3-1.3-.6-2.5-1.1-3.7l-1.3-3.8h-2.8l3.8 9.9v6.5h2.7v-6.5l3.7-10zm-10.9 2.3v-2.4h-8.9v2.4h3.1v14.1h2.7V86.2h3.1zm-10.6-2.3h-2.7v16.4h2.7V83.9zm-4.4 16.4V98h-4.7V83.9h-2.7v16.4h7.4zM89.9 83.9h-2.7v16.4h2.7V83.9zm-4.3 2.3v-2.4h-8.9v2.4h3.1v14.1h2.7V86.2h3.1zm-10.4-2.3h-2.6V96c0 1.7-.7 2.1-1.8 2.1-1.2 0-1.8-.5-1.8-2.1V83.9h-2.7v12.2c0 3.9 2.4 4.5 4.5 4.5s4.5-.6 4.5-4.5V83.9zm-15.8 5.2v-5.2h-1.1l-.7 4.4-.7-4.4h-1.2v5.2h.7v-4.7l.7 4.7h.9l.7-4.7v4.7h.7zm-4.3-4.6v-.7h-2.7v.7h1v4.6h.8v-4.6h.9zm-6.6 4.2c0 1.7-.2 2.7-1.8 2.7h-1.4v-5.2h1.4c1.6 0 1.8.9 1.8 2.5m2.9 11.6l-2.4-7c1.5-.6 2.2-2.1 2.2-4.7 0-3-.9-4.8-4.3-4.8h-4.2v16.4h2.7v-6.6h1.1l2.1 6.6h2.8zm-13.9-8.2c0 5-.4 6.1-2.2 6.1-1.8 0-2.2-1-2.2-6.1 0-5 .4-6.1 2.2-6.1 1.9 0 2.2 1.1 2.2 6.1m-7.1 0c0 5.9.9 8.4 5 8.4s5-2.6 5-8.4c0-5.8-.9-8.4-5-8.4-4.2-.1-5 2.5-5 8.4m-.7-5.9v-2.4h-8.9v2.4H24v14.1h2.7V86.2h3zm-13.3-.3c.1 1 .3 2.5.5 3.5l1 5.2H15l.9-5.2c.1-1 .3-2.5.5-3.5zm2.4 14.4h2.7L18 83.9h-3.3l-3.5 16.4h2.7l.6-3.3h3.7l.6 3.3zm-9.1-9H5.2v2.3h1.9v4.2c-.5.2-1.1.3-1.6.3C3.1 98.1 3 95.6 3 92c0-4.7.5-5.9 2.4-5.9 1 0 2.1.1 3.2.4l.2-2.4c-1.3-.3-2.2-.4-3.5-.4C1.4 83.7.1 86.1.1 92c0 5.7 1 8.5 5.2 8.5 1.4 0 3-.3 4.2-.7v-8.5z"/><path class="st0" d="M.2 76.8h204.5"/></svg>