<svg xmlns="http://www.w3.org/2000/svg" viewBox="0 0 123.19 53.52"><defs><style>.cls-1{fill:#000;}</style></defs><title>stop</title><path class="cls-1" d="M11 53.52a62.52 62.52 0 0 1-10.32-.83L1 44.54a44.35 44.35 0 0 0 9.36 1.13c4.68 0 6.19-3.17 6.19-5.81 0-3.55-1.74-5.21-3.62-7.1l-7.7-7.62c-3.4-3.4-5.21-6.8-5.21-12C0 5.43 4.68 0 13.51 0a44.42 44.42 0 0 1 9.29.91l-.31 7.47a41.84 41.84 0 0 0-7.92-.91c-4.38 0-6.19 2.34-6.19 5.21s1.21 4.53 3.7 7c3.24 3.17 5.51 5.44 8.07 8.08 3.25 3.39 4.91 6.41 4.91 11.4 0 8.4-4.83 14.36-14.06 14.36zM45.06 8.23v44.53h-8.45V8.23h-9.89V.75h28.16v7.48zM72.69.08c12.91 0 15.7 8.22 15.7 26.72s-2.79 26.72-15.7 26.72-15.85-8.15-15.85-26.72S59.63.08 72.69.08zm-.08 7.54c-5.81 0-6.94 3.25-6.94 19.18S66.8 46 72.61 46s7-3.25 7-19.17-1.19-19.21-7-19.21zM109.6 33.21h-5.29v19.55h-8.53V.75h13.74c10.42 0 13.51 5.51 13.66 16.08.15 9.97-3.32 16.38-13.58 16.38zm-.38-25h-4.91v17.53h4.91c4.68 0 5.13-3.47 5.13-8.76 0-5.13-.75-8.75-5.13-8.75z"/></svg>