<svg id="Layer_1" xmlns="http://www.w3.org/2000/svg" xmlns:xlink="http://www.w3.org/1999/xlink" viewBox="0 0 205.2 100.6"><style>.st0{clip-path:url(#SVGID_2_);fill:none;stroke:#000000;stroke-width:1.183;} .st1{clip-path:url(#SVGID_2_);}</style><path d="M203.5 76.7v1.4h-1v.4h1V82h.5v-3.5h1v-.4h-1v-1.4z"/><defs><path id="SVGID_1_" d="M.7 9.9H205v81.3H.7z"/></defs><clipPath id="SVGID_2_"><use xlink:href="#SVGID_1_" overflow="visible"/></clipPath><path class="st0" d="M.7 71.2h200.9"/><path class="st1" d="M201 44.7v-3.4h-12.8v3.4h4.5v20.2h3.8V44.7h4.5zm-15.1-3.4H182v23.6h3.9V41.3zm-6.3 3.4v-3.4h-10.3v23.6h3.9V54.4h5.1V51h-5.1v-6.4h6.4zm-12.9 20.2v-3.4H160v-7.1h5.2V51H160v-6.4h6.7v-3.4h-10.6v23.6h10.6zm-23.2-23.6h-5.2v23.6h3.5l-.1-13.2c0-2.4-.1-5.4-.3-7.5h.1c.5 2.7 1.2 5.3 1.8 7.5l3.9 13.2h5.2V41.3h-3.5l.1 13.3c0 2.1.1 5 .3 7.5h-.1c-.3-1.5-.7-3.6-1.2-5.1l-4.5-15.7zm-7.8 23.6v-3.4H129v-7.1h5.2V51H129v-6.4h6.7v-3.4h-10.6v23.6h10.6zm-17.3-6.7c0 2.3-.4 3.4-2.3 3.4h-2.2v-7.1h2.2c2.2 0 2.3 1.6 2.3 3.7m-.4-10.5c0 2.2-.2 3.4-2.3 3.4h-1.8v-6.5h2.1c1.7 0 2 1.1 2 3.1m4.3 10.7c0-2.9-1.2-5.1-3-5.8 1.7-1 2.6-2.6 2.6-5.6 0-3.8-1.6-5.8-5.5-5.8h-6.3v23.6h6c4.4.1 6.2-2.1 6.2-6.4m-21 6.5l-5.5-12 5.1-11.6h-4l-3.2 8.2-3.2-8.2h-4.1l5 11.6-5.4 12h4l3.5-8.6 3.6 8.6h4.2zM77.2 44.2c.2 1.4.4 3.6.7 5l1.4 7.5h-4.1l1.3-7.5c.2-1.4.5-3.6.7-5zm3.5 20.7h3.9l-5-23.6h-4.8l-5 23.6h3.9l.9-4.8h5.3l.8 4.8zM70.5 44.7v-3.4H57.8v3.4h4.5v20.2h3.8V44.7h4.4zm-27.3 9.8c2 0 2.6 1.4 2.6 4 0 2.9-1 3.6-2.6 3.6s-2.6-.7-2.6-3.6c-.1-2.6.6-4 2.6-4m-.1-10.6c1.3 0 2.1.6 2.1 3.3 0 2.4-.5 3.8-2.1 3.8-1.5 0-2-1.4-2-3.8.1-2.7.8-3.3 2-3.3m.1 21.4c3.6 0 6.4-1.4 6.4-6.6 0-3.2-1.2-5-2.9-6.1 1.4-1.2 2.3-2.9 2.3-5.3 0-4.9-2.5-6.4-5.8-6.4s-5.8 1.4-5.8 6.4c0 2.4.8 4.1 2.3 5.3-1.7 1.1-2.9 2.9-2.9 6.1-.1 5.1 2.8 6.6 6.4 6.6m-9.4-.4V41.3h-6.2v3.2h2.5v20.4h3.7zM22.1 53.1c0 7.2-.5 8.9-2.5 8.9-2.1 0-2.6-1.7-2.6-8.9 0-7.3.4-9 2.6-9 2.1 0 2.5 1.7 2.5 9m-8.9 0c0 8.7 1.4 12.1 6.4 12.1 4.9 0 6.3-3.4 6.3-12.1 0-8.8-1.4-12.2-6.3-12.2-5 0-6.4 3.4-6.4 12.2M.7 62.2v2.7h10.1v-3.2h-4c-.7 0-1.5 0-2.1.1v-.1C6.1 59.5 7 57.8 8 55.8l.6-1.2c1-2 2.1-4.8 2.1-7.6 0-3.6-1.6-6.1-5.6-6.1-1.3 0-2.9.1-4.2.4l.1 3.2c1.1-.2 2.3-.4 3.3-.4 2.1 0 2.8 1.4 2.8 3.4 0 2.3-1 4.7-1.8 6.2L.7 62.2zM197.2 17.8c0 2.6-.3 4.1-2.8 4.1h-2.1v-8h2.2c2.3 0 2.7 1.4 2.7 3.9m4.5 17.9L198 24.9c2.4-.9 3.5-3.3 3.5-7.2 0-4.6-1.3-7.4-6.7-7.4h-6.6v25.5h4.1V25.5h1.8l3.3 10.2h4.3zm-17.4-25.4h-4.1v18.9c0 2.6-1 3.3-2.8 3.3-1.8 0-2.8-.7-2.8-3.3V10.3h-4.1v18.9c0 6 3.7 6.9 6.9 6.9s6.9-.9 6.9-6.9V10.3zM163.1 23c0 7.8-.6 9.4-3.4 9.4s-3.4-1.6-3.4-9.4c0-7.8.6-9.4 3.4-9.4s3.4 1.6 3.4 9.4m-11.2 0c0 9.1 1.4 13.1 7.8 13.1 6.3 0 7.7-4 7.7-13.1S166 9.9 159.7 9.9c-6.4 0-7.8 4.1-7.8 13.1m-.8-12.7h-4.5l-1.9 6c-.6 1.8-1 3.6-1.4 5.7h-.1c-.5-2-1-3.8-1.6-5.7l-2-6h-4.4l5.8 15.4v10.1h4.2V25.6l5.9-15.3zm-23.7 25.4v-3.6h-7.2v-7.7h5.7v-3.6h-5.7v-6.9h7.2v-3.7H116v25.5h11.4zm-14.2-6.6c0-2.4-.8-3.9-2.4-5.6l-4-4c-1.2-1.2-1.8-2.1-1.8-3.4 0-1.4.9-2.6 3-2.6.8 0 1.9.1 3.9.4l.1-3.7c-1.6-.3-3-.4-4.5-.4-4.3 0-6.6 2.7-6.6 6.4 0 2.6.9 4.2 2.6 5.9l3.8 3.7c.9.9 1.8 1.7 1.8 3.5 0 1.3-.7 2.8-3 2.8-1.1 0-2.8-.1-4.6-.6l-.1 4c2 .4 4.2.4 5 .4 4.5.2 6.8-2.7 6.8-6.8m-15-18.8H94v25.5h4.2V10.3zM79.5 32.8c-.1-1.7-.6-4.4-.8-5.7l-3.4-16.8h-6.2v25.5h3.7V18.5c0-1.6-.1-3.4-.2-5.6h.1c.3 2.2.7 4 1 5.5l3.4 17.4h5.2l3.4-17.4c.3-1.6.6-3.4 1-5.5h.1c-.1 2.2-.2 4.1-.2 5.6v17.3h3.8V10.3H84l-3.3 16.8c-.7 1.2-1 4-1.2 5.7zM65.2 10.3H61v25.5h4.2V10.3zm-6.7 25.4l-5.9-13 5.5-12.5h-4.3L50.4 19 47 10.2h-4.5l5.4 12.5-5.9 13h4.4l3.8-9.2 3.9 9.2h4.4zM32.4 13.4c.2 1.6.5 3.9.7 5.4l1.5 8.1h-4.5l1.4-8.1c.4-1.5.7-3.9.9-5.4zm3.9 22.3h4.2L35 10.3h-5.2l-5.4 25.5h4.3l.9-5.2h5.8l.9 5.1zm-25-2.9c-.1-1.7-.6-4.4-.8-5.7L7.1 10.3H.9v25.5h3.7V18.5c0-1.6-.1-3.4-.2-5.6h.1c.3 2.2.7 4 1 5.5l3.4 17.4H14l3.4-17.4c.3-1.6.6-3.4 1-5.5h.1c-.1 2.2-.2 4.1-.2 5.6v17.3h3.8V10.3h-6.4l-3.3 16.8c-.5 1.2-.8 4-1.1 5.7zM201.1 78.4v-.9h-5.8v.9h2.4V89h1V78.4h2.4zm-7.6 7.8c0 1.3-.7 2-2 2-.5 0-1.1-.1-1.8-.3l-.1.9c.6.2 1.3.2 1.7.2 2 0 3.1-1.1 3.1-2.9 0-1.1-.4-1.8-1.1-2.5-.7-.7-1.3-1.2-1.9-1.9-.7-.6-1-1.1-1-1.9 0-1 .4-1.7 1.8-1.7.3 0 1 0 1.6.2l.1-.9c-.5-.1-1.1-.2-1.7-.2-1.7 0-2.7 1-2.7 2.6 0 1.1.5 1.8 1.2 2.6.6.6 1.2 1.1 1.7 1.6.8.8 1.1 1.3 1.1 2.2m-8.2-2.3h1.8V88c-.5.2-1.1.3-1.8.3-2.1 0-2.4-2.1-2.4-5s.3-5 2.4-5c.6 0 1.4.1 2.1.4l.1-.9c-.7-.2-1.5-.3-2.3-.3-2.7 0-3.4 2.4-3.4 5.9 0 3.5.6 5.9 3.4 5.9 1.1 0 2-.2 2.8-.5V83h-2.8v.9zm-9.9 4.3c-2.1 0-2.3-2.1-2.3-5s.2-5 2.3-5c.7 0 1.3.1 1.8.3l.1-.9c-.6-.2-1.2-.3-1.9-.3-2.9 0-3.4 2.4-3.4 5.9 0 3.5.5 5.9 3.3 5.9.8 0 1.5-.1 2-.3l-.1-.9c-.5.2-1.2.3-1.8.3m-4.3.7l-2.7-5.9 2.5-5.6h-1.1l-2 4.6-1.7-4.6H165l2.3 5.6-2.5 5.8h1.1l1.9-4.8 2.2 4.8h1.1zm-7.5 0v-.8h-3.8v-4.6h3.1v-.9h-3.1v-4.3h3.8v-.9h-4.8v11.5h4.8zm-11.8-5.7c0 3.5-.2 4.3-1.2 4.3s-1.2-.8-1.2-4.3.2-4.4 1.2-4.4 1.2.9 1.2 4.4m-4.4 0c0 4.2.7 5.9 3.1 5.9 2.4 0 3.1-1.6 3.1-5.9 0-4.3-.7-5.9-3.1-5.9-2.4 0-3.1 1.6-3.1 5.9m-3.2 0c0 3.5-.2 4.3-1.2 4.3s-1.2-.8-1.2-4.3.2-4.4 1.2-4.4 1.2.9 1.2 4.4m-4.3 0c0 4.2.7 5.9 3.1 5.9 2.4 0 3.1-1.6 3.1-5.9 0-4.3-.7-5.9-3.1-5.9-2.4 0-3.1 1.6-3.1 5.9m-3.2 0c0 3.5-.2 4.3-1.2 4.3s-1.2-.8-1.2-4.3.2-4.4 1.2-4.4 1.2.9 1.2 4.4m-4.3 0c0 4.2.7 5.9 3.1 5.9 2.4 0 3.1-1.6 3.1-5.9 0-4.3-.7-5.9-3.1-5.9-2.5 0-3.1 1.6-3.1 5.9m-.5 3.5H130v1.1c0 1.2-.2 2.1-.7 3.1h1.3c.5-.8 1.1-1.6 1.2-3.2l.1-1zm-4.6-3.5c0 3.5-.2 4.3-1.2 4.3s-1.2-.8-1.2-4.3.2-4.4 1.2-4.4 1.2.9 1.2 4.4m-4.3 0c0 4.2.7 5.9 3.1 5.9 2.4 0 3.1-1.6 3.1-5.9 0-4.3-.7-5.9-3.1-5.9-2.5 0-3.1 1.6-3.1 5.9m-5.9 4.4v1.3h4.9v-1.6h-2.9c.7-1 1.1-1.9 1.6-2.9l.3-.6c.5-.9 1-2.3 1-3.7 0-1.7-.8-3-2.7-3-.6 0-1.4 0-2.1.2v1.6c.5-.1 1.1-.2 1.6-.2 1 0 1.4.7 1.4 1.6 0 1.1-.5 2.3-.9 3l-2.2 4.3zm-1.4-1.7c0-1.1-.4-1.8-1.1-2.5l-1.8-1.8c-.5-.5-.8-.9-.8-1.5s.4-1.1 1.4-1.1c.4 0 .8 0 1.7.2l.1-1.6c-.6-.1-1.1-.2-1.7-.2v-1.9h-1.3v2c-1.3.3-2 1.4-2 2.8 0 1.1.4 1.9 1.1 2.6l1.7 1.7c.4.4.8.8.8 1.6 0 .6-.3 1.3-1.4 1.3-.5 0-1.3-.1-2.1-.2l-.1 1.8c.7.1 1.4.2 1.9.2v2.1h1.3V89c1.5-.3 2.3-1.5 2.3-3.1m-12-5.1c0 1.2-.1 1.9-1.3 1.9h-.9v-3.6h1c1 0 1.2.6 1.2 1.7m2 8.1L104 84c1.1-.4 1.6-1.5 1.6-3.2 0-2.1-.6-3.3-3-3.3h-3V89h1.9v-4.6h.8l1.5 4.6h1.9zm-7.5 0v-1.6H95v-3.4h2.5v-1.6H95v-3.1h3.2v-1.6H93v11.5h5.2zm-8.8-5.7c0 3.6-.2 4.1-1.6 4.1H87v-8.1h.8c1.4-.1 1.6.7 1.6 4m2 0c0-3.9-.7-5.7-3.4-5.7h-2.9V89H88c2.8-.1 3.4-1.9 3.4-5.8m-12.5-5.7h-2.5V89h1.7v-6.4c0-1.1-.1-2.6-.2-3.6.2 1.3.6 2.6.9 3.7l1.9 6.4h2.5V77.5h-1.7V84c0 1 0 2.4.2 3.6-.2-.7-.3-1.7-.6-2.5l-2.2-7.6zm-4.3 0h-1.8V86c0 1.2-.5 1.5-1.2 1.5-.8 0-1.3-.3-1.3-1.5v-8.5h-1.9V86c0 2.7 1.7 3.1 3.1 3.1 1.4 0 3.1-.4 3.1-3.1v-8.5zM64 85.9c0-1.1-.4-1.8-1.1-2.5l-1.8-1.8c-.5-.5-.8-.9-.8-1.5s.4-1.1 1.4-1.1c.4 0 .8 0 1.7.2l.1-1.6c-.7-.1-1.4-.2-2-.2-1.9 0-3 1.2-3 2.9 0 1.1.4 1.9 1.1 2.6l1.7 1.7c.4.4.8.8.8 1.6 0 .6-.3 1.3-1.4 1.3-.5 0-1.3-.1-2.1-.2l-.1 1.8c.9.2 1.9.2 2.3.2 2.2-.2 3.2-1.5 3.2-3.4m-8.7-5.1c0 1.2-.1 1.9-1.3 1.9h-.9v-3.6h1c1.1 0 1.2.6 1.2 1.7m2 8.1L55.6 84c1.1-.4 1.6-1.5 1.6-3.2 0-2.1-.6-3.3-3-3.3h-3V89h1.9v-4.6h.8l1.5 4.6h1.9zm-9.6-5.7c0 3.5-.2 4.2-1.5 4.2s-1.5-.7-1.5-4.2.2-4.2 1.5-4.2c1.2 0 1.5.7 1.5 4.2m-5 0c0 4.1.6 5.9 3.5 5.9 2.8 0 3.5-1.8 3.5-5.9 0-4.1-.6-5.9-3.5-5.9s-3.5 1.8-3.5 5.9m-.5-4.1v-1.6H36v1.6h2.2v9.8h1.9v-9.8h2.1zm-9.3-.2c.1.7.2 1.7.3 2.4l.7 3.7h-2l.6-3.7c.2-.7.3-1.7.4-2.4zm1.7 10h1.9L34 77.5h-2.3L29.3 89h1.9l.4-2.3h2.6l.4 2.2zm-6.4-6.3h-3.1v1.6h1.3v3c-.3.1-.8.2-1.1.2-1.6 0-1.7-1.7-1.7-4.3 0-3.3.4-4.1 1.7-4.1.7 0 1.4.1 2.3.3l.2-1.7c-.9-.2-1.5-.3-2.4-.3-2.7 0-3.6 1.7-3.6 5.8 0 4 .7 6 3.6 6 1 0 2.1-.2 3-.5v-6zm-15.7-5.1H10V89h1.7v-6.4c0-1.1 0-2.6-.1-3.6.2 1.3.6 2.6.9 3.7l1.9 6.4h2.5V77.5h-1.7V84c0 1 0 2.4.2 3.6-.1-.7-.3-1.7-.6-2.5l-2.3-7.6zm-6.1 5.7c0 3.5-.2 4.2-1.5 4.2s-1.5-.7-1.5-4.2.2-4.2 1.5-4.2 1.5.7 1.5 4.2m-5 0c0 4.1.6 5.9 3.5 5.9 2.8 0 3.5-1.8 3.5-5.9 0-4.1-.6-5.9-3.5-5.9s-3.5 1.8-3.5 5.9"/></svg>